<svg
        xmlns="http://www.w3.org/2000/svg"
        width="277.26"
        height="82.489"
        viewBox="0 0 277.26 82.489"
      >
        <g
          id="Group_3"
          data-name="Group 3"
          transform="translate(-1475.83 -681.437)"
        >
          <path
            id="Path_7"
            data-name="Path 7"
            d="M1312.862,1523.886s-5.957-18.5,0-31.228c11.707-25.016,43.014-48.53,69.968-8.872.132.447,15.844-31.564,35.033-38.654,25.592-9.456,65.239-3.469,69.782,47.526-1.628.383,64.835-6.724,82.478,31.228C1568.855,1523.517,1312.862,1523.886,1312.862,1523.886Z"
            transform="translate(165.615 -759.96)"
            fill="#3ea3f9"
          />
          <path
            id="Path_6"
            data-name="Path 6"
            d="M1334.152,1531.768s-3.893-17.589,4.25-31.339c10.425-17.6,35.587-29.8,59.327,0-.449.4,4.717-17.014,22.06-29.355,20.469-14.565,55.523-22.018,81.577,14.881-.963-1.24,68.933-28.853,96.865,45.812C1597.219,1532.141,1334.152,1531.768,1334.152,1531.768Z"
            transform="translate(154.86 -768.007)"
            fill="#3c9af7"
          />
          <path
            id="Path_5"
            data-name="Path 5"
            d="M1471.36,1541.1s31.51-60.324,87.78-19.555c-.961,1.7,52.159-71.791,88.073,0-.823-1.733,25.681-6.879,38.818,19.555C1685.673,1542.005,1471.36,1541.1,1471.36,1541.1Z"
            transform="translate(67.061 -777.576)"
            fill="#5cb7f8"
          />
        </g>
      </svg>