<svg
        xmlns="http://www.w3.org/2000/svg"
        width="135"
        height="25"
        viewBox="0 0 535.083 95.453"
      >
        <g
          id="Group_2"
          data-name="Group 2"
          transform="translate(-792.463 -664.358)"
        >
          <path
            id="Path_4"
            data-name="Path 4"
            d="M603.656,1481.821s34.294-24.25,97.267,0c1.834-.517,28.635-34.226,55.787,0,.747.664,10.341-15.5,28.234-19.565,20.181-4.582,49.36,4.783,56.69,40.407,1.778.132,49.062-19.2,64.993,27.283-.069,2.018-325.963,0-325.963,0v-48.125Z"
            transform="translate(420.919 -771.032)"
            fill="#3a90f3"
          />
          <path
            id="Path_3"
            data-name="Path 3"
            d="M509.286,1480.117s20.389-21.773,63.142,11.1c1.752,1.031,6.9-14.043,21.785-19.071,25.132-8.488,64.051-2.729,56.869,53.669.9,1.469,30.4-1.415,34.758,10.826-3.039.146-203.909,0-203.909,0v-69.41Z"
            transform="translate(461.095 -777.092)"
            fill="#3dadfa"
          />
          <path
            id="Path_2"
            data-name="Path 2"
            d="M181.522,1510.19s-4.722-73.394,70.009-43.635c1.168.608,5.9-18.632,20.49-31.677,26.821-23.973,76.186-39.268,120.642,42.689.925-.66,53.96-26.206,89.926,32.624C481.764,1512.167,181.522,1510.19,181.522,1510.19Z"
            transform="translate(611 -751.45)"
            fill="#5eb7f6"
          />
        </g>
      </svg>