<svg id="D" xmlns="http://www.w3.org/2000/svg" xmlns:xlink="http://www.w3.org/1999/xlink" width="575.225" height="634.548" viewBox="0 0 575.225 634.548">
  <defs>
    <linearGradient id="linear-gradient" x1="0.5" x2="0.485" y2="0.748" gradientUnits="objectBoundingBox">
      <stop offset="0" stop-color="#173f6e" stop-opacity="0.302"/>
      <stop offset="1" stop-color="#173f6e" stop-opacity="0"/>
    </linearGradient>
    <linearGradient id="linear-gradient-2" x1="1.109" y1="-0.343" x2="0.5" y2="0.551" gradientUnits="objectBoundingBox">
      <stop offset="0" stop-color="#fff" stop-opacity="0.302"/>
      <stop offset="1" stop-color="#fff" stop-opacity="0"/>
    </linearGradient>
    <linearGradient id="linear-gradient-3" x1="0.5" y1="1" x2="0.5" y2="0.252" gradientUnits="objectBoundingBox">
      <stop offset="0" stop-color="#fff" stop-opacity="0.161"/>
      <stop offset="1" stop-color="#fff" stop-opacity="0"/>
    </linearGradient>
    <linearGradient id="linear-gradient-4" x2="0.497" y2="0.231" xlink:href="#linear-gradient-3"/>
    <linearGradient id="linear-gradient-5" x1="0.48" x2="0.48" y2="0.593" xlink:href="#linear-gradient-3"/>
    <linearGradient id="linear-gradient-6" x1="0.529" y1="-0.022" x2="0.341" y2="0.937" gradientUnits="objectBoundingBox">
      <stop offset="0" stop-color="#3a88f1" stop-opacity="0"/>
      <stop offset="0.079" stop-color="#76b4e6" stop-opacity="0.608"/>
      <stop offset="1" stop-color="#3dadfa" stop-opacity="0"/>
    </linearGradient>
  </defs>
  <path id="Combined-Shape" d="M.771,68.311A67.985,67.985,0,0,1,68.859.428H236.733c194.536,0,328.943,136.881,328.943,315.461,0,180.393-134.407,319.087-328.943,319.087H68.859A67.985,67.985,0,0,1,.771,567.094Z" transform="translate(9.549 -0.428)" fill="url(#linear-gradient)"/>
  <path id="Path-5" d="M190.962,63.594l1.643-4.532,4.213-1.344-4.213-1.632-1.643-4.244-1.488,4.244-4.383,1.632,4.383,1.344Z" transform="translate(207.272 54.724)" fill="rgba(229,238,243,0.8)" fill-rule="evenodd"/>
  <ellipse id="Oval-11" cx="2.513" cy="2.518" rx="2.513" ry="2.518" transform="translate(131.018 125.034)" fill="#fafafa"/>
  <circle id="Oval-11-2" data-name="Oval-11" cx="2.073" cy="2.073" r="2.073" transform="translate(348.409 242.167)" fill="#fafafa"/>
  <path id="Path-5-2" data-name="Path-5" d="M86.788,172.315l2.348-6.475,6.018-1.92-6.018-2.331-2.348-6.063-2.125,6.063L78.4,163.92l6.262,1.92Z" transform="translate(92.824 165.946)" fill="#e5eef3" fill-rule="evenodd"/>
  <ellipse id="Oval-10" cx="29.318" cy="29.382" rx="29.318" ry="29.382" transform="translate(442.622 158.613)" fill="url(#linear-gradient-2)"/>
  <g id="Group-7" transform="translate(143.135 13.252)">
    <g id="Group_1" data-name="Group 1" transform="matrix(0.966, -0.259, 0.259, 0.966, 0, 47.42)">
      <ellipse id="Oval-13" cx="47.708" cy="80.176" rx="47.708" ry="80.176" transform="matrix(-0.97, -0.242, 0.242, -0.97, 116.662, 194.766)" fill="url(#linear-gradient-3)"/>
      <ellipse id="Oval-13-2" data-name="Oval-13" cx="24.873" cy="94.246" rx="24.873" ry="94.246" transform="translate(91.903 223.031) rotate(-168)" fill="url(#linear-gradient-4)"/>
      <ellipse id="Oval-13-3" data-name="Oval-13" cx="74.014" cy="86.648" rx="74.014" ry="86.648" transform="translate(144.235 202.153) rotate(-167)" fill="url(#linear-gradient-5)"/>
      <path id="Combined-Shape-2" data-name="Combined-Shape" d="M14.138,0h9.026l1.613,4.573,11.392,3.6a1.692,1.692,0,0,1,.8,2.68L27.342,22.718Q20.895,49.745,18.76,49.745T9.974,22.718L.377,10.853a1.692,1.692,0,0,1,.806-2.678l11.393-3.6Z" transform="translate(110.363 100.863) rotate(-167)" fill="#fff" fill-rule="evenodd"/>
    </g>
  </g>
  <path id="Rectangle-19" d="M270.325,0c4.507,0,1.317,1.042,4.507,0q-111.941,312.009-6.274,424.056L0,331.584Q145.509,345.782,270.325,0Z" transform="translate(0 220.314) rotate(-19)" fill-rule="evenodd" fill="url(#linear-gradient-6)"/>
</svg>


