<svg id="Service" xmlns="http://www.w3.org/2000/svg" xmlns:xlink="http://www.w3.org/1999/xlink" width="89.472" height="99.469" viewBox="0 0 89.472 99.469">
  <defs>
    <linearGradient id="linear-gradient" x1="0.103" y1="1.018" x2="0.919" gradientUnits="objectBoundingBox">
      <stop offset="0" stop-color="#9d98d9"/>
      <stop offset="1" stop-color="#a1bff7"/>
    </linearGradient>
  </defs>
  <g id="DL-Service-Copy" transform="translate(-1040 -1296)">
    <g id="Services-cards" transform="translate(142.5 1254.5)">
      <g id="Group-14" transform="translate(875.5)">
        <g id="icon_ico-AI" data-name="icon/ico-AI" transform="translate(22 41.5)">
          <path id="Combined-Shape" d="M0,10.593A10.614,10.614,0,0,1,10.635,0H36.856C67.242,0,88.235,21.36,88.235,49.226c0,28.15-20.994,49.792-51.379,49.792H10.635A10.614,10.614,0,0,1,0,88.426Z" fill-rule="evenodd" fill="url(#linear-gradient)"/>
          <path id="Fill-1" d="M53.659,24.93a9.4,9.4,0,0,1,7.593,13,1.774,1.774,0,0,0-.119.99,1.672,1.672,0,0,0,.319.735l.107.127L74.17,53.258a1.646,1.646,0,0,0,.832.479,1.831,1.831,0,0,0,1.019-.061,9.4,9.4,0,1,1-.328,17.639,1.718,1.718,0,0,0-.973-.084,1.672,1.672,0,0,0-.723.344l-.123.111L61.73,83.851a1.676,1.676,0,0,0-.456.848,1.733,1.733,0,0,0,.084.978,9.391,9.391,0,0,1-8.936,12.788,9.128,9.128,0,0,1-5.133-1.728,9.876,9.876,0,0,1-3.413-4.361,8.8,8.8,0,0,1-.64-3.692A1.906,1.906,0,0,0,43,87.667a1.618,1.618,0,0,0-.54-.575l-.143-.081-8.354-4.184a1.635,1.635,0,0,0-.943-.159,1.856,1.856,0,0,0-.942.413A9.4,9.4,0,1,1,32.1,68.56a1.789,1.789,0,0,0,.92.4,1.653,1.653,0,0,0,.792-.1l.152-.067,8.348-4.182a1.691,1.691,0,0,0,.7-.66,1.663,1.663,0,0,0,.225-.929,11.079,11.079,0,0,1,.031-1.38,1.824,1.824,0,0,0-.183-1,1.66,1.66,0,0,0-.52-.606l-.14-.089-8.844-5.02a1.677,1.677,0,0,0-1.837.117,9.394,9.394,0,1,1,.2-14.9,1.811,1.811,0,0,0,.935.386,1.648,1.648,0,0,0,.789-.111l.151-.07,8.5-4.472a1.641,1.641,0,0,0,.655-.633,1.911,1.911,0,0,0,.251-.964A9.39,9.39,0,0,1,53.659,24.93ZM69.2,65.322h-6.78l-.146.009a1.218,1.218,0,0,0-.531.194,1.113,1.113,0,0,0-.421.515,9.428,9.428,0,0,1-3.459,4.3,9.362,9.362,0,0,1-11.412-.7,1.3,1.3,0,0,0-1.44-.184h0l-8.8,4.407-.138.079a1.349,1.349,0,0,0-.427.446,1.129,1.129,0,0,0-.158.667c.022.248.033.5.033.759s-.011.509-.033.76a1.127,1.127,0,0,0,.158.665,1.359,1.359,0,0,0,.564.525h0l8.8,4.408.145.062a1.3,1.3,0,0,0,1.3-.245,9.35,9.35,0,0,1,9.812-1.568,1.177,1.177,0,0,0,.7.066,1.336,1.336,0,0,0,.671-.365h0L70.145,67.592l.1-.117a1.284,1.284,0,0,0,.25-.553,1.385,1.385,0,0,0-.088-.789,1.3,1.3,0,0,0-1.208-.811Zm-23.9-24.577-.159.007a1.291,1.291,0,0,0-.462.141h0l-8.516,4.482-.134.081a1.28,1.28,0,0,0-.4.452,1.39,1.39,0,0,0-.153.781c.026.276.04.555.04.838a9.435,9.435,0,0,1-.069,1.139,1.37,1.37,0,0,0,.687,1.355h0l9.246,5.249.142.07a1.336,1.336,0,0,0,.6.105,1.141,1.141,0,0,0,.646-.243,9.352,9.352,0,0,1,11.086-.435,9.427,9.427,0,0,1,3.459,4.3,1.116,1.116,0,0,0,.422.516,1.223,1.223,0,0,0,.677.2h6.789l.127-.007a1.141,1.141,0,0,0,.591-.24,2.252,2.252,0,0,0,.647-.947,1.15,1.15,0,0,0,.087-.681,1.276,1.276,0,0,0-.328-.656h0L57.386,43.418l-.121-.114a1.383,1.383,0,0,0-.575-.288,1.365,1.365,0,0,0-.795.052A9.329,9.329,0,0,1,46.18,41.1a1.3,1.3,0,0,0-.715-.344h0Z" fill="#fff" stroke="#aba8a8" stroke-width="2" fill-rule="evenodd"/>
        </g>
      </g>
    </g>
  </g>
</svg>
