<svg xmlns="http://www.w3.org/2000/svg" xmlns:xlink="http://www.w3.org/1999/xlink" width="116.736" height="104.34" viewBox="0 0 116.736 104.34">
  <defs>
    <linearGradient id="linear-gradient" x1="0.104" y1="1.088" x2="0.896" gradientUnits="objectBoundingBox">
      <stop offset="0" stop-color="#ffc208"/>
      <stop offset="1" stop-color="#ff4f74"/>
    </linearGradient>
  </defs>
  <g id="Service" transform="translate(-0.5)">
    <g id="DL-Service-Copy" transform="translate(-164 -1297)">
      <g id="Services-cards" transform="translate(142.5 1254.5)">
        <g id="Group-10" transform="translate(0 2)">
          <g id="Group" transform="translate(22 40.5)">
            <g id="Group_6" data-name="Group 6" transform="translate(0 -3)">
              <path id="Combined-Shape-Copy-9" d="M0,13.818A10.834,10.834,0,0,1,10.851,3H37.6c31,0,52.422,21.813,52.422,50.271,0,28.747-21.42,50.849-52.422,50.849H10.851A10.834,10.834,0,0,1,0,93.3Z" fill-rule="evenodd" fill="url(#linear-gradient)"/>
              <g id="Group-18-Copy" transform="matrix(0.719, 0.695, -0.695, 0.719, 71.505, 0.033)">
                <path id="Combined-Shape-Copy-12" d="M20.506,20.914a5.066,5.066,0,0,1,5.086,5.045,5,5,0,0,1-.993,2.995H35.536v30.96h-26a5,5,0,0,1-5-5V33.954a5,5,0,0,1,5-5h6.876a5,5,0,0,1-.993-2.995A5.066,5.066,0,0,1,20.506,20.914Z" transform="translate(60.451 20.378) rotate(90)" fill="#fff" stroke="#aba8a8" stroke-linejoin="round" stroke-width="2" fill-rule="evenodd"/>
                <path id="Combined-Shape" d="M16.814,46.524A5.13,5.13,0,0,1,20.275,55.4l12.477,0v31.12h-27a5,5,0,0,1-5-5V55.4l12.6,0a5.13,5.13,0,0,1,3.461-8.881Z" fill="#fff" stroke="#aba8a8" stroke-linejoin="round" stroke-width="2" fill-rule="evenodd"/>
                <path id="Combined-Shape-Copy-11" d="M42.077,51.21a5.129,5.129,0,0,1,3.869,8.451H58.129V74.253a4.5,4.5,0,1,0,0,2.991V86.21a5,5,0,0,1-5,5h-22a5,5,0,0,1-5-5V59.66H38.208a5.129,5.129,0,0,1,3.869-8.451Z" transform="translate(-29.08 113.339) rotate(-90)" fill="#fff" stroke="#aba8a8" stroke-linejoin="round" stroke-width="2" fill-rule="evenodd"/>
                <path id="Combined-Shape-Copy-13" d="M54.125,7.755l.04.015,19.5,7.193a5,5,0,0,1,2.975,6.381L69.509,41.2a5,5,0,0,1-6.4,3.016l-.04-.015-5.949-2.2a5.107,5.107,0,0,1,.1,3.717,5.022,5.022,0,0,1-6.473,3.024,5.127,5.127,0,0,1-3.041-6.533,5.022,5.022,0,0,1,2.437-2.782L38.921,35.3l4.207-11.712a5.038,5.038,0,0,0,3.026,3.108,4.948,4.948,0,0,0,6.381-2.976,5.052,5.052,0,0,0-3-6.436,4.944,4.944,0,0,0-4.29.411L47.73,10.77A5,5,0,0,1,54.125,7.755Z" transform="matrix(0.819, -0.574, 0.574, 0.819, -5.734, 38.338)" fill="#fff" stroke="#aba8a8" stroke-linejoin="round" stroke-width="2" fill-rule="evenodd"/>
              </g>
            </g>
          </g>
        </g>
      </g>
    </g>
  </g>
</svg>
