<svg id="Vrstva_1" data-name="Vrstva 1" xmlns="http://www.w3.org/2000/svg" viewBox="0 0 833.79 792.32"><defs><style>.cls-1{fill:#980000;stroke:#980000;stroke-miterlimit:10;stroke-width:10px;}.cls-2{fill:#eef1f4;}</style></defs><path id="path-1" class="cls-1" d="M828.79,703.67c0,46.2-44.43,83.65-99.29,83.65H484.73C201.07,787.32,5,616.32,5,393.94,5,173.73,201.07,5,484.73,5H729.49c54.9,0,99.29,37.45,99.29,83.66Z"/><path id="path-1-2" class="cls-2" d="M57.44,409.24A264,264,0,0,0,61,366.48c0-60.76,2.2-99.9,39.88-151.85,49.79-68.74,109.77-58.16,196.92-97A221.09,221.09,0,0,0,321,105.28c88.69-53.17,192.88-74.45,295.51-61.77h0a261.34,261.34,0,0,0,32,2c58,0,152.75,1.78,152.75,43.64v281.3q0,9.23.65,18.43c4.34,61.51,25,428.19-103.34,365.85-111.9-54.35-281.06-17.3-435-50.24C144.64,679.05,57.6,576.16,54.51,454.64A245.55,245.55,0,0,1,57.44,409.24Z"/></svg>