<svg xmlns="http://www.w3.org/2000/svg" width="840.293" height="801.82" viewBox="0 0 840.293 801.82">
  <g id="Group_15" data-name="Group 15" transform="translate(0 0)">
    <path id="Intersection_3" data-name="Intersection 3" d="M34.57,417.221,0,236.418C71.913,95.161,236.589,0,449.8,0H699.472c55.96,0,101.282,38.378,101.282,85.741V460.764Z" transform="translate(39.539 0)" fill="#d0d1fb"/>
    <path id="Intersection_2" data-name="Intersection 2" d="M61.385,415.161,23.173,362.094A360.669,360.669,0,0,1,0,233.809C0,164.9,18.285,100.793,51.793,44.894,194.657,7.652,503.8-52.279,614.6,89.9c92.851,119.15,176.826,151.8,225.7,159.781V546.694c0,35.062-24.839,65.2-60.444,78.49Z" transform="translate(0 169.386)" fill="#fafaff"/>
    <path id="Intersection_1" data-name="Intersection 1" d="M489.317,397.108C201.577,397.108,2.23,226.134,0,2.3c85.319-7.469,211.346-.521,314.556,79.044C488.276,215.264,638.412,284.6,823.886,241.154q8.779-2.057,16.387-3.206v73.42c0,47.363-45.322,85.74-101.282,85.74Z" transform="translate(0.02 404.712)" fill="#5453bd"/>
  </g>
</svg>
